#!OML:ASF F:\VICON\USERDATA\INSTALL\rory3\rory3.ASF
:FULLY-SPECIFIED
:DEGREES
681
root -15.5806 17.7206 9.11884 -1.79417 -5.48254 -2.35858
lowerback 14.0411 0.908018 -0.0639808
upperback 0.520606 1.29188 1.31266
thorax -7.36645 0.652611 1.17066
lowerneck -9.87889 -8.46903 -12.3435
upperneck 37.7869 -13.9159 10.308
head 17.1666 -6.37711 4.27339
rclavicle -1.7139e-014 -2.38542e-015
rhumerus -33.4916 -18.5814 -72.796
rradius 31.0928
rwrist 3.66944
rhand -26.0375 9.65299
rfingers 7.12502
rthumb 0.509484 -20.3261
lclavicle -1.7139e-014 -2.38542e-015
lhumerus -34.4638 17.1155 75.5946
lradius 29.447
lwrist -6.98923
lhand -21.0729 24.7565
lfingers 7.12502
lthumb 5.30395 54.6701
rfemur -4.39844 -1.06171 15.6221
rtibia 25.1384
rfoot -17.0237 1.39568
rtoes -28.7135
lfemur -10.9595 -10.2524 -1.23064
ltibia 39.6006
lfoot -1.5266 12.143
ltoes -6.8502
682
root -15.6653 17.7294 9.11183 -1.66508 -5.70289 -2.29979
lowerback 13.8637 0.958912 -0.0273182
upperback 0.538003 1.36176 1.28564
thorax -7.24826 0.684764 1.1094
lowerneck -9.85376 -8.45728 -12.3376
upperneck 37.6042 -13.9961 10.5965
head 17.1079 -6.37755 4.38317
rclavicle -7.15004e-015 -9.39258e-015
rhumerus -33.1634 -18.4765 -72.5312
rradius 31.386
rwrist 3.62931
rhand -25.8578 9.19291
rfingers 7.12502
rthumb 0.683097 -20.7857
lclavicle -7.15004e-015 -9.39258e-015
lhumerus -34.464 17.0932 75.9818
lradius 29.1221
lwrist -7.6109
lhand -21.2092 24.1434
lfingers 7.12502
lthumb 5.17239 54.0603
rfemur -4.50962 -0.96329 15.8644
rtibia 24.9773
rfoot -16.9473 1.54841
rtoes -28.6488
lfemur -11.5411 -10.0635 -1.88621
ltibia 40.4008
lfoot -2.9135 11.1853
ltoes -9.18227
683
root -15.749 17.7379 9.10489 -1.58758 -5.89679 -2.31225
lowerback 13.8574 0.995607 0.0760926
upperback 0.472034 1.42815 1.29163
thorax -7.31447 0.713843 1.04375
lowerneck -8.93945 -8.41878 -12.6114
upperneck 36.6051 -14.0632 11.207
head 16.4496 -6.41524 4.68407
rclavicle 3.54085e-015 -2.00773e-014
rhumerus -33.0704 -18.2493 -72.198
rradius 31.8139
rwrist 3.40972
rhand -25.738 8.89655
rfingers 7.12502
rthumb 0.798782 -21.0817
lclavicle 3.54085e-015 -2.00773e-014
lhumerus -34.5604 17.0834 76.3377
lradius 28.7091
lwrist -8.21782
lhand -21.2391 23.9476
lfingers 7.12502
lthumb 5.14353 53.8652
rfemur -4.57536 -0.810366 16.1904
rtibia 24.8772
rfoot -16.8945 1.58911
rtoes -28.555
lfemur -12.0506 -9.8464 -2.48785
ltibia 41.0863
lfoot -4.12196 9.74159
ltoes -10.7034
684
root -15.8315 17.7431 9.09748 -1.53419 -6.03159 -2.32516
lowerback 13.9423 1.00217 0.16559
upperback 0.404736 1.45261 1.28922
thorax -7.43249 0.72263 0.984095
lowerneck -8.91517 -8.42987 -12.6389
upperneck 36.4283 -14.1118 11.3532
head 16.3789 -6.42488 4.73797
rclavicle -2.11706e-014 -1.15295e-014
rhumerus -33.0155 -17.9919 -71.9116
rradius 32.2987
rwrist 2.92989
rhand -25.8997 8.53537
rfingers 7.12502
rthumb 0.642611 -21.4434
lclavicle -2.11706e-014 -1.15295e-014
lhumerus -34.6664 17.1041 76.6524
lradius 28.3166
lwrist -8.80638
lhand -21.2315 23.4924
lfingers 7.12502
lthumb 5.15084 53.4098
rfemur -4.6247 -0.624918 16.5211
rtibia 24.8214
rfoot -16.8566 1.54431
rtoes -28.1178
lfemur -12.5451 -9.7323 -3.10372
ltibia 41.6413
lfoot -5.00358 7.63477
ltoes -10.4526
685
root -15.9121 17.7464 9.09653 -1.50862 -6.12736 -2.27658
lowerback 13.8422 1.00322 0.239236
upperback 0.471136 1.46031 1.24552
thorax -7.30211 0.722966 0.896306
lowerneck -9.18578 -8.43276 -12.5927
upperneck 36.4275 -14.1615 11.5065
head 16.4682 -6.41049 4.78058
rclavicle 1.00448e-014 -1.80894e-014
rhumerus -32.8023 -17.9714 -71.688
rradius 32.7407
rwrist 2.53091
rhand -26.2963 7.62947
rfingers 7.12502
rthumb 0.259597 -22.3501
lclavicle 1.00448e-014 -1.80894e-014
lhumerus -34.6531 17.0329 77.0211
lradius 28.0488
lwrist -9.31599
lhand -21.3394 23.276
lfingers 7.12502
lthumb 5.0466 53.1959
rfemur -4.62954 -0.409683 16.7685
rtibia 24.807
rfoot -16.8433 1.45183
rtoes -27.5229
lfemur -12.9575 -9.74049 -3.84485
ltibia 42.0772
lfoot -6.13894 5.53495
ltoes -10.6611
